<svg width="75" height="70" viewBox="0 0 75 70" fill="none" xmlns="http://www.w3.org/2000/svg">
<g clip-path="url(#clip0_157_3275)">
<path d="M46.4133 0.0177775L53.8194 9.05142L61.9789 17.7273M24.9586 32.7597H50.3867M24.9586 54.2095H50.3867M24.9586 43.4846H50.3867M16.4054 0.0177775C15.5925 0.0405137 14.7784 0.0787439 14.2106 0.741066C13.6427 1.40339 13.3661 2.63731 13.3664 3.56253V65.786C13.3661 66.7109 13.3568 67.8219 13.9243 68.4841C14.4918 69.1464 15.5912 69.3076 16.4039 69.3308H58.9414C59.7677 69.3308 60.5729 69.4746 61.1572 68.8098C61.7415 68.145 62.057 66.7261 62.057 65.786V17.7273H49.5929C48.7797 17.7046 48.0065 17.3209 47.4386 16.6582C47.4386 16.6582 46.5532 15.1063 46.5539 14.1808V0L16.4054 0.0177775Z" stroke="black" stroke-linecap="round" stroke-linejoin="round"/>
<path d="M43.3358 48.5184V31.9988H52.3321V48.5184H57.4791L48.2804 60.9999L37.8713 48.5184H43.3358Z" fill="#4CAF50" stroke="black"/>
</g>
<defs>
<clipPath id="clip0_157_3275">
<rect width="75" height="69.3307" fill="white"/>
</clipPath>
</defs>
</svg>