<svg width="102" height="69" viewBox="0 0 102 69" fill="none" xmlns="http://www.w3.org/2000/svg">
<path d="M1 52.5936V1H101V52.5936H1Z" fill="#4CAF50" stroke="black"/>
<path d="M1 57.7531V52.5938H101V57.7531H52.5385H1Z" stroke="black"/>
<path d="M43.2489 57.7524L42.0861 64.7544L36.2722 68.4397H66.1171L59.528 64.7544L57.9776 57.7524" stroke="black"/>
<path d="M55.7826 13.6218L62.6466 20.1314L56.5041 20.1314L55.7826 18.4864L55.7826 13.6218Z" fill="white"/>
<path d="M41.841 13.4012C41.4712 13.4098 41.101 13.4243 40.8428 13.6761C40.5845 13.9278 40.4587 14.3967 40.4588 14.7484V38.3968C40.4587 38.7483 40.4545 39.1705 40.7126 39.4222C40.9707 39.6739 41.4706 39.7352 41.8402 39.744H61.1855C61.5613 39.744 61.9274 39.7987 62.1932 39.546C62.4589 39.2934 62.6024 38.7541 62.6024 38.3968V20.1318H56.934C56.5641 20.1232 56.2125 19.9773 55.9542 19.7254C55.9542 19.7254 55.5516 19.1357 55.5519 18.7839V13.3944L41.841 13.4012ZM55.4879 13.4012L58.8561 16.8345L62.5669 20.1318M45.7307 25.8449H57.295H45.7307ZM45.7307 33.9971H57.295H45.7307ZM45.7307 29.921H57.295H45.7307Z" fill="white"/>
<path d="M55.4879 13.4012L58.8561 16.8345L62.5669 20.1318M45.7307 25.8449H57.295M45.7307 33.9971H57.295M45.7307 29.921H57.295M41.841 13.4012C41.4712 13.4098 41.101 13.4243 40.8428 13.6761C40.5845 13.9278 40.4587 14.3967 40.4588 14.7484V38.3968C40.4587 38.7483 40.4545 39.1705 40.7126 39.4222C40.9707 39.6739 41.4706 39.7352 41.8402 39.744H61.1855C61.5613 39.744 61.9274 39.7987 62.1932 39.546C62.4589 39.2934 62.6024 38.7541 62.6024 38.3968V20.1318H56.934C56.5641 20.1232 56.2125 19.9773 55.9542 19.7254C55.9542 19.7254 55.5516 19.1357 55.5519 18.7839V13.3944L41.841 13.4012Z" stroke="black" stroke-linecap="round" stroke-linejoin="round"/>
<path d="M53.9843 31.0614V24.783H58.0756V31.0614H60.4164L56.233 35.8051L51.4991 31.0614H53.9843Z" fill="#4CAF50" stroke="black"/>
</svg>